<svg width="33" height="33" viewBox="0 0 33 33" fill="none" xmlns="http://www.w3.org/2000/svg">
<path d="M32.9598 6.18201C32.8999 5.97134 32.7962 5.77394 32.6547 5.6012C32.5132 5.42847 32.3368 5.28383 32.1355 5.17566L23.0153 0.226384C22.8161 0.116622 22.5959 0.0449086 22.3673 0.0153562C22.1386 -0.0141962 21.906 -0.00100686 21.6828 0.0541683C21.4596 0.109343 21.2501 0.205419 21.0664 0.336888C20.8828 0.468356 20.7285 0.632632 20.6124 0.820297L16.5083 7.51831L12.4043 0.820297C12.2882 0.632632 12.1339 0.468356 11.9503 0.336888C11.7666 0.205419 11.5571 0.109343 11.3339 0.0541683C11.1107 -0.00100686 10.8781 -0.0141962 10.6494 0.0153562C10.4208 0.0449086 10.2006 0.116622 10.0014 0.226384L0.881234 5.17566C0.679945 5.28383 0.503451 5.42847 0.361959 5.6012C0.220467 5.77394 0.116785 5.97134 0.0569085 6.18201C-0.0591695 6.60014 0.00380652 7.04441 0.232297 7.41933L7.24784 18.6872C6.46516 20.0359 6.03247 21.5396 5.98504 23.0755C5.98086 24.574 6.33842 26.0538 7.03074 27.4033C7.72306 28.7528 8.73208 29.9369 9.98171 30.8663C11.2314 31.7956 12.689 32.446 14.2447 32.7683C15.8005 33.0906 17.4137 33.0765 18.9628 32.727C20.5119 32.3775 21.9564 31.7017 23.1874 30.7507C24.4185 29.7996 25.4039 28.598 26.0694 27.2366C26.7349 25.8752 27.0631 24.3894 27.0292 22.8913C26.9954 21.3931 26.6004 19.9218 25.8741 18.5882L32.7142 7.43582C32.8415 7.2526 32.9288 7.04739 32.971 6.83213C33.0131 6.61687 33.0093 6.39587 32.9598 6.18201ZM4.23115 7.20486L10.2996 3.90534L15.9471 13.177C13.5398 13.3169 11.2586 14.2381 9.49281 15.7836L4.23115 7.20486ZM16.5083 29.6745C14.6477 29.6745 12.8633 28.9793 11.5476 27.7417C10.2319 26.5042 9.49281 24.8257 9.49281 23.0755C9.49281 21.3253 10.2319 19.6469 11.5476 18.4093C12.8633 17.1717 14.6477 16.4765 16.5083 16.4765C18.369 16.4765 20.1534 17.1717 21.4691 18.4093C22.7848 19.6469 23.5239 21.3253 23.5239 23.0755C23.5239 24.8257 22.7848 26.5042 21.4691 27.7417C20.1534 28.9793 18.369 29.6745 16.5083 29.6745ZM23.5239 15.7341C22.5717 14.916 21.4653 14.2725 20.2617 13.8369L18.5429 10.8178L22.7873 3.90534L28.8557 7.20486L23.5239 15.7341Z" fill="#5BB700"/>
</svg>
