<svg width="33" height="33" viewBox="0 0 33 33" fill="none" xmlns="http://www.w3.org/2000/svg">
<path d="M27.5 8.25639H26.8583C27.2767 7.48565 27.4961 6.63979 27.5 5.78203C27.5055 4.63281 27.1287 3.5084 26.418 2.55353C25.7073 1.59866 24.6952 0.857033 23.512 0.42411C22.3289 -0.00881253 21.0288 -0.113216 19.7791 0.12434C18.5295 0.361895 17.3874 0.930536 16.5 1.75707C15.6126 0.930536 14.4705 0.361895 13.2209 0.12434C11.9712 -0.113216 10.6711 -0.00881253 9.48797 0.42411C8.30481 0.857033 7.29274 1.59866 6.58201 2.55353C5.87129 3.5084 5.49445 4.63281 5.5 5.78203C5.50391 6.63979 5.72327 7.48565 6.14167 8.25639H5.5C4.04131 8.25639 2.64236 8.77777 1.61091 9.70584C0.579463 10.6339 0 11.8926 0 13.2051V16.5043C0 16.9418 0.193154 17.3613 0.536971 17.6707C0.880788 17.98 1.3471 18.1538 1.83333 18.1538H3.66667V28.0513C3.66667 29.3638 4.24613 30.6225 5.27758 31.5506C6.30903 32.4786 7.70798 33 9.16667 33H23.8333C25.292 33 26.691 32.4786 27.7224 31.5506C28.7539 30.6225 29.3333 29.3638 29.3333 28.0513V18.1538H31.1667C31.6529 18.1538 32.1192 17.98 32.463 17.6707C32.8068 17.3613 33 16.9418 33 16.5043V13.2051C33 11.8926 32.4205 10.6339 31.3891 9.70584C30.3576 8.77777 28.9587 8.25639 27.5 8.25639ZM14.6667 29.7009H9.16667C8.68044 29.7009 8.21412 29.5271 7.8703 29.2177C7.52649 28.9084 7.33333 28.4888 7.33333 28.0513V18.1538H14.6667V29.7009ZM14.6667 14.8547H3.66667V13.2051C3.66667 12.7676 3.85982 12.348 4.20364 12.0387C4.54745 11.7293 5.01377 11.5555 5.5 11.5555H14.6667V14.8547ZM14.6667 8.25639H11.9167C11.3728 8.25639 10.8411 8.11127 10.3888 7.83938C9.93661 7.5675 9.58414 7.18106 9.376 6.72893C9.16786 6.2768 9.1134 5.77928 9.21951 5.2993C9.32562 4.81933 9.58753 4.37844 9.97212 4.03239C10.3567 3.68634 10.8467 3.45068 11.3802 3.35521C11.9136 3.25974 12.4665 3.30874 12.969 3.49602C13.4715 3.68329 13.901 4.00044 14.2032 4.40735C14.5054 4.81425 14.6667 5.29265 14.6667 5.78203V8.25639ZM18.3333 5.78203C18.3333 5.29265 18.4946 4.81425 18.7968 4.40735C19.099 4.00044 19.5285 3.68329 20.031 3.49602C20.5335 3.30874 21.0864 3.25974 21.6198 3.35521C22.1533 3.45068 22.6433 3.68634 23.0279 4.03239C23.4125 4.37844 23.6744 4.81933 23.7805 5.2993C23.8866 5.77928 23.8321 6.2768 23.624 6.72893C23.4159 7.18106 23.0634 7.5675 22.6112 7.83938C22.1589 8.11127 21.6272 8.25639 21.0833 8.25639H18.3333V5.78203ZM25.6667 28.0513C25.6667 28.4888 25.4735 28.9084 25.1297 29.2177C24.7859 29.5271 24.3196 29.7009 23.8333 29.7009H18.3333V18.1538H25.6667V28.0513ZM29.3333 14.8547H18.3333V11.5555H27.5C27.9862 11.5555 28.4525 11.7293 28.7964 12.0387C29.1402 12.348 29.3333 12.7676 29.3333 13.2051V14.8547Z" fill="#FC8A05"/>
</svg>
