<svg width="33" height="33" viewBox="0 0 33 33" fill="none" xmlns="http://www.w3.org/2000/svg">
<path d="M28.05 16.5H16.5V4.95C16.5 3.96 15.84 3.3 14.85 3.3C6.6 3.3 0 9.9 0 18.15C0 26.4 6.6 33 14.85 33C23.1 33 29.7 26.4 29.7 18.15C29.7 17.16 29.04 16.5 28.05 16.5ZM16.5 29.535C10.23 30.525 4.29 26.07 3.465 19.8C2.475 13.53 6.93 7.59 13.2 6.765V18.15C13.2 19.14 13.86 19.8 14.85 19.8H26.235C25.575 24.915 21.615 28.875 16.5 29.535ZM21.45 0C20.46 0 19.8 0.66 19.8 1.65V11.55C19.8 12.54 20.46 13.2 21.45 13.2H31.35C32.34 13.2 33 12.54 33 11.55C33 5.115 27.885 0 21.45 0ZM23.1 9.9V3.465C26.4 4.125 28.875 6.6 29.535 9.9H23.1Z" fill="#E068FE"/>
</svg>
