<svg width="33" height="33" viewBox="0 0 33 33" fill="none" xmlns="http://www.w3.org/2000/svg">
<path d="M31.35 26.4014H28.05V21.4524C28.05 21.0149 27.8762 20.5953 27.5667 20.2859C27.2573 19.9765 26.8376 19.8027 26.4 19.8027H18.15V15.3321L20.0145 16.3054C20.2864 16.4476 20.5926 16.5112 20.8986 16.489C21.2047 16.4668 21.4985 16.3598 21.7471 16.1798C21.9956 15.9999 22.189 15.7542 22.3056 15.4704C22.4222 15.1866 22.4573 14.8759 22.407 14.5733L21.747 10.6636L24.585 7.87566C24.8 7.6658 24.9535 7.40124 25.0291 7.11052C25.1047 6.8198 25.0995 6.51397 25.014 6.226C24.9184 5.93282 24.7424 5.6723 24.5062 5.47402C24.27 5.27574 23.9829 5.14763 23.6775 5.10423L19.8 4.49386L17.985 0.93059C17.8499 0.65168 17.6389 0.416461 17.3763 0.251876C17.1137 0.0872921 16.81 0 16.5 0C16.19 0 15.8863 0.0872921 15.6237 0.251876C15.3611 0.416461 15.1501 0.65168 15.015 0.93059L13.2 4.49386L9.2565 5.07124C8.95112 5.11464 8.66402 5.24274 8.42779 5.44102C8.19155 5.63931 8.01563 5.89982 7.92 6.19301C7.83451 6.48097 7.82928 6.78681 7.90488 7.07753C7.98049 7.36824 8.13405 7.6328 8.349 7.84267L11.253 10.6636L10.593 14.5733C10.5427 14.8759 10.5778 15.1866 10.6944 15.4704C10.811 15.7542 11.0044 15.9999 11.2529 16.1798C11.5015 16.3598 11.7953 16.4668 12.1013 16.489C12.4074 16.5112 12.7136 16.4476 12.9855 16.3054L14.85 15.3321V19.8027H6.6C6.16239 19.8027 5.74271 19.9765 5.43327 20.2859C5.12384 20.5953 4.95 21.0149 4.95 21.4524V26.4014H1.65C1.21239 26.4014 0.792709 26.5752 0.483274 26.8845C0.173839 27.1939 0 27.6135 0 28.051V31.3503C0 31.7879 0.173839 32.2075 0.483274 32.5168C0.792709 32.8262 1.21239 33 1.65 33C2.08761 33 2.50729 32.8262 2.81673 32.5168C3.12616 32.2075 3.3 31.7879 3.3 31.3503V29.7007H9.9V31.3503C9.9 31.7879 10.0738 32.2075 10.3833 32.5168C10.6927 32.8262 11.1124 33 11.55 33C11.9876 33 12.4073 32.8262 12.7167 32.5168C13.0262 32.2075 13.2 31.7879 13.2 31.3503V28.051C13.2 27.6135 13.0262 27.1939 12.7167 26.8845C12.4073 26.5752 11.9876 26.4014 11.55 26.4014H8.25V23.102H24.75V26.4014H21.45C21.0124 26.4014 20.5927 26.5752 20.2833 26.8845C19.9738 27.1939 19.8 27.6135 19.8 28.051V31.3503C19.8 31.7879 19.9738 32.2075 20.2833 32.5168C20.5927 32.8262 21.0124 33 21.45 33C21.8876 33 22.3073 32.8262 22.6167 32.5168C22.9262 32.2075 23.1 31.7879 23.1 31.3503V29.7007H29.7V31.3503C29.7 31.7879 29.8738 32.2075 30.1833 32.5168C30.4927 32.8262 30.9124 33 31.35 33C31.7876 33 32.2073 32.8262 32.5167 32.5168C32.8262 32.2075 33 31.7879 33 31.3503V28.051C33 27.6135 32.8262 27.1939 32.5167 26.8845C32.2073 26.5752 31.7876 26.4014 31.35 26.4014ZM16.5 10.944C16.2292 10.9454 15.9628 11.0134 15.7245 11.142L14.4045 11.8348L14.652 10.3502C14.6953 10.0875 14.6744 9.81834 14.5911 9.56555C14.5077 9.31276 14.3645 9.08388 14.1735 8.89845L13.101 7.84267L14.586 7.62821C14.8517 7.59273 15.1047 7.49307 15.3232 7.33785C15.5417 7.18264 15.7191 6.97655 15.84 6.7374L16.5 5.38468L17.16 6.7374C17.2809 6.97655 17.4583 7.18264 17.6768 7.33785C17.8953 7.49307 18.1483 7.59273 18.414 7.62821L19.899 7.84267L18.8265 8.89845C18.6355 9.08388 18.4923 9.31276 18.4089 9.56555C18.3256 9.81834 18.3047 10.0875 18.348 10.3502L18.5955 11.8348L17.2755 11.142C17.0372 11.0134 16.7708 10.9454 16.5 10.944Z" fill="#0094FF"/>
</svg>
